<mxfile host="65bd71144e">
    <diagram id="DEsIzvHcYvWovUB4zy_y" name="第 1 页">
        <mxGraphModel dx="1398" dy="728" grid="1" gridSize="10" guides="1" tooltips="1" connect="1" arrows="1" fold="1" page="1" pageScale="1" pageWidth="827" pageHeight="1169" math="0" shadow="0">
            <root>
                <mxCell id="0"/>
                <mxCell id="1" parent="0"/>
                <mxCell id="2" value="account" style="swimlane;fontStyle=0;childLayout=stackLayout;horizontal=1;startSize=26;horizontalStack=0;resizeParent=1;resizeParentMax=0;resizeLast=0;collapsible=1;marginBottom=0;" parent="1" vertex="1">
                    <mxGeometry x="80" y="22" width="140" height="182" as="geometry"/>
                </mxCell>
                <mxCell id="3" value="username" style="text;strokeColor=none;fillColor=none;align=left;verticalAlign=top;spacingLeft=4;spacingRight=4;overflow=hidden;rotatable=0;points=[[0,0.5],[1,0.5]];portConstraint=eastwest;" parent="2" vertex="1">
                    <mxGeometry y="26" width="140" height="26" as="geometry"/>
                </mxCell>
                <mxCell id="4" value="password" style="text;strokeColor=none;fillColor=none;align=left;verticalAlign=top;spacingLeft=4;spacingRight=4;overflow=hidden;rotatable=0;points=[[0,0.5],[1,0.5]];portConstraint=eastwest;" parent="2" vertex="1">
                    <mxGeometry y="52" width="140" height="26" as="geometry"/>
                </mxCell>
                <mxCell id="63" value="email" style="text;strokeColor=none;fillColor=none;align=left;verticalAlign=top;spacingLeft=4;spacingRight=4;overflow=hidden;rotatable=0;points=[[0,0.5],[1,0.5]];portConstraint=eastwest;" vertex="1" parent="2">
                    <mxGeometry y="78" width="140" height="26" as="geometry"/>
                </mxCell>
                <mxCell id="64" value="phone" style="text;strokeColor=none;fillColor=none;align=left;verticalAlign=top;spacingLeft=4;spacingRight=4;overflow=hidden;rotatable=0;points=[[0,0.5],[1,0.5]];portConstraint=eastwest;" vertex="1" parent="2">
                    <mxGeometry y="104" width="140" height="26" as="geometry"/>
                </mxCell>
                <mxCell id="65" value="suffix" style="text;strokeColor=none;fillColor=none;align=left;verticalAlign=top;spacingLeft=4;spacingRight=4;overflow=hidden;rotatable=0;points=[[0,0.5],[1,0.5]];portConstraint=eastwest;" vertex="1" parent="2">
                    <mxGeometry y="130" width="140" height="26" as="geometry"/>
                </mxCell>
                <mxCell id="5" value="accountType" style="text;strokeColor=none;fillColor=none;align=left;verticalAlign=top;spacingLeft=4;spacingRight=4;overflow=hidden;rotatable=0;points=[[0,0.5],[1,0.5]];portConstraint=eastwest;" parent="2" vertex="1">
                    <mxGeometry y="156" width="140" height="26" as="geometry"/>
                </mxCell>
                <mxCell id="10" value="student" style="swimlane;fontStyle=0;childLayout=stackLayout;horizontal=1;startSize=26;horizontalStack=0;resizeParent=1;resizeParentMax=0;resizeLast=0;collapsible=1;marginBottom=0;" parent="1" vertex="1">
                    <mxGeometry x="240" y="22" width="140" height="218" as="geometry"/>
                </mxCell>
                <mxCell id="11" value="name" style="text;strokeColor=none;fillColor=none;align=left;verticalAlign=top;spacingLeft=4;spacingRight=4;overflow=hidden;rotatable=0;points=[[0,0.5],[1,0.5]];portConstraint=eastwest;" parent="10" vertex="1">
                    <mxGeometry y="26" width="140" height="26" as="geometry"/>
                </mxCell>
                <mxCell id="12" value="age" style="text;strokeColor=none;fillColor=none;align=left;verticalAlign=top;spacingLeft=4;spacingRight=4;overflow=hidden;rotatable=0;points=[[0,0.5],[1,0.5]];portConstraint=eastwest;" parent="10" vertex="1">
                    <mxGeometry y="52" width="140" height="26" as="geometry"/>
                </mxCell>
                <mxCell id="13" value="gender" style="text;strokeColor=none;fillColor=none;align=left;verticalAlign=top;spacingLeft=4;spacingRight=4;overflow=hidden;rotatable=0;points=[[0,0.5],[1,0.5]];portConstraint=eastwest;" parent="10" vertex="1">
                    <mxGeometry y="78" width="140" height="20" as="geometry"/>
                </mxCell>
                <mxCell id="14" value="schoolID" style="text;strokeColor=none;fillColor=none;align=left;verticalAlign=top;spacingLeft=4;spacingRight=4;overflow=hidden;rotatable=0;points=[[0,0.5],[1,0.5]];portConstraint=eastwest;" parent="10" vertex="1">
                    <mxGeometry y="98" width="140" height="20" as="geometry"/>
                </mxCell>
                <mxCell id="66" value="phone" style="text;strokeColor=none;fillColor=none;align=left;verticalAlign=top;spacingLeft=4;spacingRight=4;overflow=hidden;rotatable=0;points=[[0,0.5],[1,0.5]];portConstraint=eastwest;" vertex="1" parent="10">
                    <mxGeometry y="118" width="140" height="20" as="geometry"/>
                </mxCell>
                <mxCell id="67" value="IDCard" style="text;strokeColor=none;fillColor=none;align=left;verticalAlign=top;spacingLeft=4;spacingRight=4;overflow=hidden;rotatable=0;points=[[0,0.5],[1,0.5]];portConstraint=eastwest;" vertex="1" parent="10">
                    <mxGeometry y="138" width="140" height="20" as="geometry"/>
                </mxCell>
                <mxCell id="68" value="classID" style="text;strokeColor=none;fillColor=none;align=left;verticalAlign=top;spacingLeft=4;spacingRight=4;overflow=hidden;rotatable=0;points=[[0,0.5],[1,0.5]];portConstraint=eastwest;" vertex="1" parent="10">
                    <mxGeometry y="158" width="140" height="20" as="geometry"/>
                </mxCell>
                <mxCell id="69" value="grade" style="text;strokeColor=none;fillColor=none;align=left;verticalAlign=top;spacingLeft=4;spacingRight=4;overflow=hidden;rotatable=0;points=[[0,0.5],[1,0.5]];portConstraint=eastwest;" vertex="1" parent="10">
                    <mxGeometry y="178" width="140" height="20" as="geometry"/>
                </mxCell>
                <mxCell id="70" value="academy" style="text;strokeColor=none;fillColor=none;align=left;verticalAlign=top;spacingLeft=4;spacingRight=4;overflow=hidden;rotatable=0;points=[[0,0.5],[1,0.5]];portConstraint=eastwest;" vertex="1" parent="10">
                    <mxGeometry y="198" width="140" height="20" as="geometry"/>
                </mxCell>
                <mxCell id="17" value="teacher" style="swimlane;fontStyle=0;childLayout=stackLayout;horizontal=1;startSize=26;horizontalStack=0;resizeParent=1;resizeParentMax=0;resizeLast=0;collapsible=1;marginBottom=0;" parent="1" vertex="1">
                    <mxGeometry x="400" y="22" width="140" height="178" as="geometry"/>
                </mxCell>
                <mxCell id="18" value="face" style="text;strokeColor=none;fillColor=none;align=left;verticalAlign=top;spacingLeft=4;spacingRight=4;overflow=hidden;rotatable=0;points=[[0,0.5],[1,0.5]];portConstraint=eastwest;" parent="17" vertex="1">
                    <mxGeometry y="26" width="140" height="26" as="geometry"/>
                </mxCell>
                <mxCell id="19" value="name" style="text;strokeColor=none;fillColor=none;align=left;verticalAlign=top;spacingLeft=4;spacingRight=4;overflow=hidden;rotatable=0;points=[[0,0.5],[1,0.5]];portConstraint=eastwest;" parent="17" vertex="1">
                    <mxGeometry y="52" width="140" height="26" as="geometry"/>
                </mxCell>
                <mxCell id="20" value="age" style="text;strokeColor=none;fillColor=none;align=left;verticalAlign=top;spacingLeft=4;spacingRight=4;overflow=hidden;rotatable=0;points=[[0,0.5],[1,0.5]];portConstraint=eastwest;" parent="17" vertex="1">
                    <mxGeometry y="78" width="140" height="20" as="geometry"/>
                </mxCell>
                <mxCell id="21" value="gender" style="text;strokeColor=none;fillColor=none;align=left;verticalAlign=top;spacingLeft=4;spacingRight=4;overflow=hidden;rotatable=0;points=[[0,0.5],[1,0.5]];portConstraint=eastwest;" parent="17" vertex="1">
                    <mxGeometry y="98" width="140" height="20" as="geometry"/>
                </mxCell>
                <mxCell id="23" value="phone" style="text;strokeColor=none;fillColor=none;align=left;verticalAlign=top;spacingLeft=4;spacingRight=4;overflow=hidden;rotatable=0;points=[[0,0.5],[1,0.5]];portConstraint=eastwest;" parent="17" vertex="1">
                    <mxGeometry y="118" width="140" height="20" as="geometry"/>
                </mxCell>
                <mxCell id="71" value="academy" style="text;strokeColor=none;fillColor=none;align=left;verticalAlign=top;spacingLeft=4;spacingRight=4;overflow=hidden;rotatable=0;points=[[0,0.5],[1,0.5]];portConstraint=eastwest;" vertex="1" parent="17">
                    <mxGeometry y="138" width="140" height="20" as="geometry"/>
                </mxCell>
                <mxCell id="72" value="department" style="text;strokeColor=none;fillColor=none;align=left;verticalAlign=top;spacingLeft=4;spacingRight=4;overflow=hidden;rotatable=0;points=[[0,0.5],[1,0.5]];portConstraint=eastwest;" vertex="1" parent="17">
                    <mxGeometry y="158" width="140" height="20" as="geometry"/>
                </mxCell>
                <mxCell id="24" value="Orgchart" style="swimlane;startSize=20;horizontal=1;containerType=tree;newEdgeStyle={&quot;edgeStyle&quot;:&quot;elbowEdgeStyle&quot;,&quot;startArrow&quot;:&quot;none&quot;,&quot;endArrow&quot;:&quot;none&quot;};" parent="1" vertex="1">
                    <mxGeometry x="20" y="270" width="1080" height="475" as="geometry"/>
                </mxCell>
                <mxCell id="25" value="" style="edgeStyle=elbowEdgeStyle;elbow=vertical;startArrow=none;endArrow=none;rounded=0;" parent="24" source="27" target="28" edge="1">
                    <mxGeometry relative="1" as="geometry"/>
                </mxCell>
                <mxCell id="26" value="" style="edgeStyle=elbowEdgeStyle;elbow=vertical;startArrow=none;endArrow=none;rounded=0;exitX=0.5;exitY=1;exitDx=0;exitDy=0;" parent="24" source="27" target="29" edge="1">
                    <mxGeometry relative="1" as="geometry">
                        <Array as="points">
                            <mxPoint x="560" y="120"/>
                            <mxPoint x="550" y="178"/>
                        </Array>
                        <mxPoint x="520" y="120" as="sourcePoint"/>
                    </mxGeometry>
                </mxCell>
                <UserObject label="学生信息管理系统" treeRoot="1" id="27">
                    <mxCell style="whiteSpace=wrap;html=1;align=center;treeFolding=1;treeMoving=1;newEdgeStyle={&quot;edgeStyle&quot;:&quot;elbowEdgeStyle&quot;,&quot;startArrow&quot;:&quot;none&quot;,&quot;endArrow&quot;:&quot;none&quot;};" parent="24" vertex="1">
                        <mxGeometry x="460" y="40" width="120" height="60" as="geometry"/>
                    </mxCell>
                </UserObject>
                <mxCell id="28" value="用户" style="whiteSpace=wrap;html=1;align=center;verticalAlign=middle;treeFolding=1;treeMoving=1;newEdgeStyle={&quot;edgeStyle&quot;:&quot;elbowEdgeStyle&quot;,&quot;startArrow&quot;:&quot;none&quot;,&quot;endArrow&quot;:&quot;none&quot;};" parent="24" vertex="1">
                    <mxGeometry x="250" y="140" width="100" height="60" as="geometry"/>
                </mxCell>
                <mxCell id="29" value="学生管理" style="whiteSpace=wrap;html=1;align=center;verticalAlign=middle;treeFolding=1;treeMoving=1;newEdgeStyle={&quot;edgeStyle&quot;:&quot;elbowEdgeStyle&quot;,&quot;startArrow&quot;:&quot;none&quot;,&quot;endArrow&quot;:&quot;none&quot;};" parent="24" vertex="1">
                    <mxGeometry x="510" y="200" width="100" height="60" as="geometry"/>
                </mxCell>
                <mxCell id="34" value="" style="edgeStyle=elbowEdgeStyle;elbow=vertical;startArrow=none;endArrow=none;rounded=0;" parent="24" source="28" target="35" edge="1">
                    <mxGeometry relative="1" as="geometry">
                        <mxPoint x="405" y="380" as="sourcePoint"/>
                    </mxGeometry>
                </mxCell>
                <mxCell id="35" value="用户登录" style="whiteSpace=wrap;html=1;align=center;verticalAlign=middle;treeFolding=1;treeMoving=1;newEdgeStyle={&quot;edgeStyle&quot;:&quot;elbowEdgeStyle&quot;,&quot;startArrow&quot;:&quot;none&quot;,&quot;endArrow&quot;:&quot;none&quot;};" parent="24" vertex="1">
                    <mxGeometry x="150" y="230" width="100" height="60" as="geometry"/>
                </mxCell>
                <mxCell id="36" value="" style="edgeStyle=elbowEdgeStyle;elbow=vertical;startArrow=none;endArrow=none;rounded=0;" parent="24" source="28" target="37" edge="1">
                    <mxGeometry relative="1" as="geometry">
                        <mxPoint x="275" y="480" as="sourcePoint"/>
                    </mxGeometry>
                </mxCell>
                <mxCell id="37" value="用户注销" style="whiteSpace=wrap;html=1;align=center;verticalAlign=middle;treeFolding=1;treeMoving=1;newEdgeStyle={&quot;edgeStyle&quot;:&quot;elbowEdgeStyle&quot;,&quot;startArrow&quot;:&quot;none&quot;,&quot;endArrow&quot;:&quot;none&quot;};" parent="24" vertex="1">
                    <mxGeometry x="260" y="230" width="100" height="60" as="geometry"/>
                </mxCell>
                <mxCell id="38" value="" style="edgeStyle=elbowEdgeStyle;elbow=vertical;startArrow=none;endArrow=none;rounded=0;" parent="24" source="28" target="39" edge="1">
                    <mxGeometry relative="1" as="geometry">
                        <mxPoint x="145" y="490" as="sourcePoint"/>
                    </mxGeometry>
                </mxCell>
                <mxCell id="39" value="用户注册" style="whiteSpace=wrap;html=1;align=center;verticalAlign=middle;treeFolding=1;treeMoving=1;newEdgeStyle={&quot;edgeStyle&quot;:&quot;elbowEdgeStyle&quot;,&quot;startArrow&quot;:&quot;none&quot;,&quot;endArrow&quot;:&quot;none&quot;};" parent="24" vertex="1">
                    <mxGeometry x="30" y="230" width="100" height="60" as="geometry"/>
                </mxCell>
                <mxCell id="40" value="" style="edgeStyle=elbowEdgeStyle;elbow=vertical;startArrow=none;endArrow=none;rounded=0;" parent="24" source="28" target="41" edge="1">
                    <mxGeometry relative="1" as="geometry">
                        <mxPoint x="295" y="450" as="sourcePoint"/>
                    </mxGeometry>
                </mxCell>
                <mxCell id="41" value="查询" style="whiteSpace=wrap;html=1;align=center;verticalAlign=middle;treeFolding=1;treeMoving=1;newEdgeStyle={&quot;edgeStyle&quot;:&quot;elbowEdgeStyle&quot;,&quot;startArrow&quot;:&quot;none&quot;,&quot;endArrow&quot;:&quot;none&quot;};" parent="24" vertex="1">
                    <mxGeometry x="380" y="230" width="100" height="60" as="geometry"/>
                </mxCell>
                <mxCell id="42" value="" style="edgeStyle=elbowEdgeStyle;elbow=vertical;startArrow=none;endArrow=none;rounded=0;" edge="1" target="43" source="27" parent="24">
                    <mxGeometry relative="1" as="geometry">
                        <mxPoint x="280" y="360" as="sourcePoint"/>
                    </mxGeometry>
                </mxCell>
                <mxCell id="43" value="教师信息" style="whiteSpace=wrap;html=1;align=center;verticalAlign=middle;treeFolding=1;treeMoving=1;newEdgeStyle={&quot;edgeStyle&quot;:&quot;elbowEdgeStyle&quot;,&quot;startArrow&quot;:&quot;none&quot;,&quot;endArrow&quot;:&quot;none&quot;};" vertex="1" parent="24">
                    <mxGeometry x="690" y="140" width="100" height="60" as="geometry"/>
                </mxCell>
                <mxCell id="44" value="" style="edgeStyle=elbowEdgeStyle;elbow=vertical;startArrow=none;endArrow=none;rounded=0;" edge="1" target="45" source="29" parent="24">
                    <mxGeometry relative="1" as="geometry">
                        <mxPoint x="405" y="360" as="sourcePoint"/>
                    </mxGeometry>
                </mxCell>
                <mxCell id="45" value="学生信息添加" style="whiteSpace=wrap;html=1;align=center;verticalAlign=middle;treeFolding=1;treeMoving=1;newEdgeStyle={&quot;edgeStyle&quot;:&quot;elbowEdgeStyle&quot;,&quot;startArrow&quot;:&quot;none&quot;,&quot;endArrow&quot;:&quot;none&quot;};" vertex="1" collapsed="1" parent="24">
                    <mxGeometry x="280" y="355" width="100" height="60" as="geometry"/>
                </mxCell>
                <mxCell id="46" value="" style="edgeStyle=elbowEdgeStyle;elbow=vertical;startArrow=none;endArrow=none;rounded=0;" edge="1" target="47" source="29" parent="24">
                    <mxGeometry relative="1" as="geometry">
                        <mxPoint x="405" y="460" as="sourcePoint"/>
                    </mxGeometry>
                </mxCell>
                <mxCell id="47" value="学生信息修改" style="whiteSpace=wrap;html=1;align=center;verticalAlign=middle;treeFolding=1;treeMoving=1;newEdgeStyle={&quot;edgeStyle&quot;:&quot;elbowEdgeStyle&quot;,&quot;startArrow&quot;:&quot;none&quot;,&quot;endArrow&quot;:&quot;none&quot;};" vertex="1" collapsed="1" parent="24">
                    <mxGeometry x="400" y="355" width="100" height="60" as="geometry"/>
                </mxCell>
                <mxCell id="48" value="" style="edgeStyle=elbowEdgeStyle;elbow=vertical;startArrow=none;endArrow=none;rounded=0;" edge="1" target="49" source="29" parent="24">
                    <mxGeometry relative="1" as="geometry">
                        <mxPoint x="405" y="460" as="sourcePoint"/>
                    </mxGeometry>
                </mxCell>
                <mxCell id="49" value="学生信息查询" style="whiteSpace=wrap;html=1;align=center;verticalAlign=middle;treeFolding=1;treeMoving=1;newEdgeStyle={&quot;edgeStyle&quot;:&quot;elbowEdgeStyle&quot;,&quot;startArrow&quot;:&quot;none&quot;,&quot;endArrow&quot;:&quot;none&quot;};" vertex="1" collapsed="1" parent="24">
                    <mxGeometry x="510" y="355" width="100" height="60" as="geometry"/>
                </mxCell>
                <mxCell id="50" value="" style="edgeStyle=elbowEdgeStyle;elbow=vertical;startArrow=none;endArrow=none;rounded=0;" edge="1" target="51" source="29" parent="24">
                    <mxGeometry relative="1" as="geometry">
                        <mxPoint x="405" y="460" as="sourcePoint"/>
                    </mxGeometry>
                </mxCell>
                <mxCell id="51" value="学生信息删除" style="whiteSpace=wrap;html=1;align=center;verticalAlign=middle;treeFolding=1;treeMoving=1;newEdgeStyle={&quot;edgeStyle&quot;:&quot;elbowEdgeStyle&quot;,&quot;startArrow&quot;:&quot;none&quot;,&quot;endArrow&quot;:&quot;none&quot;};" vertex="1" collapsed="1" parent="24">
                    <mxGeometry x="620" y="355" width="100" height="60" as="geometry"/>
                </mxCell>
                <mxCell id="52" value="" style="edgeStyle=elbowEdgeStyle;elbow=vertical;startArrow=none;endArrow=none;rounded=0;" edge="1" target="53" source="43" parent="24">
                    <mxGeometry relative="1" as="geometry">
                        <mxPoint x="285" y="360" as="sourcePoint"/>
                    </mxGeometry>
                </mxCell>
                <mxCell id="53" value="教师信息录入" style="whiteSpace=wrap;html=1;align=center;verticalAlign=middle;treeFolding=1;treeMoving=1;newEdgeStyle={&quot;edgeStyle&quot;:&quot;elbowEdgeStyle&quot;,&quot;startArrow&quot;:&quot;none&quot;,&quot;endArrow&quot;:&quot;none&quot;};" vertex="1" collapsed="1" parent="24">
                    <mxGeometry x="620" y="240" width="100" height="60" as="geometry"/>
                </mxCell>
                <mxCell id="54" value="" style="edgeStyle=elbowEdgeStyle;elbow=vertical;startArrow=none;endArrow=none;rounded=0;" edge="1" target="55" source="43" parent="24">
                    <mxGeometry relative="1" as="geometry">
                        <mxPoint x="285" y="360" as="sourcePoint"/>
                    </mxGeometry>
                </mxCell>
                <mxCell id="55" value="教师信息修改" style="whiteSpace=wrap;html=1;align=center;verticalAlign=middle;treeFolding=1;treeMoving=1;newEdgeStyle={&quot;edgeStyle&quot;:&quot;elbowEdgeStyle&quot;,&quot;startArrow&quot;:&quot;none&quot;,&quot;endArrow&quot;:&quot;none&quot;};" vertex="1" collapsed="1" parent="24">
                    <mxGeometry x="730" y="240" width="100" height="60" as="geometry"/>
                </mxCell>
                <mxCell id="56" value="" style="edgeStyle=elbowEdgeStyle;elbow=vertical;startArrow=none;endArrow=none;rounded=0;" edge="1" target="57" source="43" parent="24">
                    <mxGeometry relative="1" as="geometry">
                        <mxPoint x="285" y="360" as="sourcePoint"/>
                    </mxGeometry>
                </mxCell>
                <mxCell id="57" value="教师信息查询" style="whiteSpace=wrap;html=1;align=center;verticalAlign=middle;treeFolding=1;treeMoving=1;newEdgeStyle={&quot;edgeStyle&quot;:&quot;elbowEdgeStyle&quot;,&quot;startArrow&quot;:&quot;none&quot;,&quot;endArrow&quot;:&quot;none&quot;};" vertex="1" collapsed="1" parent="24">
                    <mxGeometry x="840" y="240" width="100" height="60" as="geometry"/>
                </mxCell>
                <mxCell id="60" value="" style="edgeStyle=elbowEdgeStyle;elbow=vertical;startArrow=none;endArrow=none;rounded=0;" edge="1" target="61" source="43" parent="24">
                    <mxGeometry relative="1" as="geometry">
                        <mxPoint x="770" y="405" as="sourcePoint"/>
                    </mxGeometry>
                </mxCell>
                <mxCell id="61" value="教师信息删除" style="whiteSpace=wrap;html=1;align=center;verticalAlign=middle;treeFolding=1;treeMoving=1;newEdgeStyle={&quot;edgeStyle&quot;:&quot;elbowEdgeStyle&quot;,&quot;startArrow&quot;:&quot;none&quot;,&quot;endArrow&quot;:&quot;none&quot;};" vertex="1" collapsed="1" parent="24">
                    <mxGeometry x="950" y="240" width="100" height="60" as="geometry"/>
                </mxCell>
                <mxCell id="171" value="" style="edgeStyle=elbowEdgeStyle;elbow=vertical;startArrow=none;endArrow=none;rounded=0;" edge="1" target="172" source="29" parent="24">
                    <mxGeometry relative="1" as="geometry">
                        <mxPoint x="580" y="530" as="sourcePoint"/>
                    </mxGeometry>
                </mxCell>
                <mxCell id="172" value="查询本专业教师信息" style="whiteSpace=wrap;html=1;align=center;verticalAlign=middle;treeFolding=1;treeMoving=1;newEdgeStyle={&quot;edgeStyle&quot;:&quot;elbowEdgeStyle&quot;,&quot;startArrow&quot;:&quot;none&quot;,&quot;endArrow&quot;:&quot;none&quot;};" vertex="1" collapsed="1" parent="24">
                    <mxGeometry x="730" y="355" width="110" height="60" as="geometry"/>
                </mxCell>
                <mxCell id="84" style="edgeStyle=none;html=1;entryX=0.5;entryY=0;entryDx=0;entryDy=0;" edge="1" parent="1" source="74" target="77">
                    <mxGeometry relative="1" as="geometry"/>
                </mxCell>
                <mxCell id="74" value="开始" style="rounded=1;whiteSpace=wrap;html=1;" vertex="1" parent="1">
                    <mxGeometry x="570" y="800" width="120" height="60" as="geometry"/>
                </mxCell>
                <mxCell id="85" style="edgeStyle=none;html=1;exitX=0.5;exitY=1;exitDx=0;exitDy=0;" edge="1" parent="1" source="77" target="81">
                    <mxGeometry relative="1" as="geometry"/>
                </mxCell>
                <mxCell id="90" value="" style="edgeStyle=none;html=1;" edge="1" parent="1" source="77" target="88">
                    <mxGeometry relative="1" as="geometry"/>
                </mxCell>
                <mxCell id="77" value="是否注册" style="rhombus;whiteSpace=wrap;html=1;" vertex="1" parent="1">
                    <mxGeometry x="590" y="930" width="80" height="80" as="geometry"/>
                </mxCell>
                <mxCell id="94" style="edgeStyle=none;html=1;exitX=0.5;exitY=1;exitDx=0;exitDy=0;" edge="1" parent="1" source="81" target="93">
                    <mxGeometry relative="1" as="geometry"/>
                </mxCell>
                <mxCell id="117" style="edgeStyle=none;html=1;" edge="1" parent="1" source="81">
                    <mxGeometry relative="1" as="geometry">
                        <mxPoint x="630" y="900" as="targetPoint"/>
                        <Array as="points">
                            <mxPoint x="500" y="1090"/>
                            <mxPoint x="500" y="900"/>
                        </Array>
                    </mxGeometry>
                </mxCell>
                <mxCell id="81" value="登录" style="whiteSpace=wrap;html=1;rounded=0;" vertex="1" parent="1">
                    <mxGeometry x="570" y="1060" width="120" height="60" as="geometry"/>
                </mxCell>
                <mxCell id="86" value="是" style="text;html=1;strokeColor=none;fillColor=none;align=center;verticalAlign=middle;whiteSpace=wrap;rounded=0;" vertex="1" parent="1">
                    <mxGeometry x="570" y="1010" width="60" height="30" as="geometry"/>
                </mxCell>
                <mxCell id="91" style="edgeStyle=none;html=1;entryX=1;entryY=0.75;entryDx=0;entryDy=0;" edge="1" parent="1" source="88" target="86">
                    <mxGeometry relative="1" as="geometry">
                        <mxPoint x="700" y="1090" as="targetPoint"/>
                        <Array as="points">
                            <mxPoint x="790" y="1033"/>
                        </Array>
                    </mxGeometry>
                </mxCell>
                <mxCell id="88" value="注册" style="whiteSpace=wrap;html=1;" vertex="1" parent="1">
                    <mxGeometry x="730" y="940" width="120" height="60" as="geometry"/>
                </mxCell>
                <mxCell id="97" value="" style="edgeStyle=none;html=1;" edge="1" parent="1" source="93" target="96">
                    <mxGeometry relative="1" as="geometry"/>
                </mxCell>
                <mxCell id="99" value="" style="edgeStyle=none;html=1;" edge="1" parent="1" source="93" target="98">
                    <mxGeometry relative="1" as="geometry"/>
                </mxCell>
                <mxCell id="93" value="用户是否是管理员" style="rhombus;whiteSpace=wrap;html=1;" vertex="1" parent="1">
                    <mxGeometry x="570" y="1190" width="120" height="120" as="geometry"/>
                </mxCell>
                <mxCell id="95" value="否" style="text;html=1;strokeColor=none;fillColor=none;align=center;verticalAlign=middle;whiteSpace=wrap;rounded=0;" vertex="1" parent="1">
                    <mxGeometry x="664" y="940" width="60" height="30" as="geometry"/>
                </mxCell>
                <mxCell id="178" style="edgeStyle=none;html=1;entryX=1;entryY=0.5;entryDx=0;entryDy=0;" edge="1" parent="1" source="96" target="177">
                    <mxGeometry relative="1" as="geometry">
                        <Array as="points">
                            <mxPoint x="440" y="1360"/>
                        </Array>
                    </mxGeometry>
                </mxCell>
                <mxCell id="184" value="" style="edgeStyle=none;html=1;" edge="1" parent="1" source="96" target="183">
                    <mxGeometry relative="1" as="geometry">
                        <Array as="points">
                            <mxPoint x="290" y="1250"/>
                        </Array>
                    </mxGeometry>
                </mxCell>
                <mxCell id="96" value="展示管理界面" style="whiteSpace=wrap;html=1;" vertex="1" parent="1">
                    <mxGeometry x="380" y="1220" width="120" height="60" as="geometry"/>
                </mxCell>
                <mxCell id="104" value="" style="edgeStyle=none;html=1;" edge="1" parent="1" source="98" target="103">
                    <mxGeometry relative="1" as="geometry"/>
                </mxCell>
                <mxCell id="108" value="" style="edgeStyle=none;html=1;" edge="1" parent="1" source="98" target="107">
                    <mxGeometry relative="1" as="geometry"/>
                </mxCell>
                <mxCell id="98" value="展示个人信息" style="whiteSpace=wrap;html=1;" vertex="1" parent="1">
                    <mxGeometry x="777" y="1220" width="120" height="60" as="geometry"/>
                </mxCell>
                <mxCell id="100" value="是" style="text;html=1;strokeColor=none;fillColor=none;align=center;verticalAlign=middle;whiteSpace=wrap;rounded=0;" vertex="1" parent="1">
                    <mxGeometry x="500" y="1220" width="60" height="30" as="geometry"/>
                </mxCell>
                <mxCell id="101" value="否" style="text;html=1;strokeColor=none;fillColor=none;align=center;verticalAlign=middle;whiteSpace=wrap;rounded=0;" vertex="1" parent="1">
                    <mxGeometry x="694" y="1220" width="60" height="30" as="geometry"/>
                </mxCell>
                <mxCell id="103" value="展示个人信息" style="whiteSpace=wrap;html=1;" vertex="1" parent="1">
                    <mxGeometry x="970" y="1320" width="120" height="60" as="geometry"/>
                </mxCell>
                <mxCell id="107" value="修改个人信息" style="whiteSpace=wrap;html=1;" vertex="1" parent="1">
                    <mxGeometry x="970" y="1170" width="120" height="60" as="geometry"/>
                </mxCell>
                <mxCell id="109" value="修改学生信息" style="whiteSpace=wrap;html=1;" vertex="1" parent="1">
                    <mxGeometry x="510" y="1430" width="120" height="60" as="geometry"/>
                </mxCell>
                <mxCell id="111" value="添加学生信息" style="whiteSpace=wrap;html=1;" vertex="1" parent="1">
                    <mxGeometry x="380" y="1430" width="120" height="60" as="geometry"/>
                </mxCell>
                <mxCell id="113" value="删除学生信息" style="whiteSpace=wrap;html=1;" vertex="1" parent="1">
                    <mxGeometry x="250" y="1430" width="120" height="60" as="geometry"/>
                </mxCell>
                <mxCell id="115" value="查询学生信息" style="whiteSpace=wrap;html=1;" vertex="1" parent="1">
                    <mxGeometry x="120" y="1430" width="120" height="60" as="geometry"/>
                </mxCell>
                <mxCell id="118" value="失败" style="text;html=1;align=center;verticalAlign=middle;resizable=0;points=[];autosize=1;strokeColor=none;fillColor=none;" vertex="1" parent="1">
                    <mxGeometry x="500" y="1060" width="40" height="20" as="geometry"/>
                </mxCell>
                <mxCell id="119" value="成功" style="text;html=1;align=center;verticalAlign=middle;resizable=0;points=[];autosize=1;strokeColor=none;fillColor=none;" vertex="1" parent="1">
                    <mxGeometry x="630" y="1130" width="40" height="20" as="geometry"/>
                </mxCell>
                <mxCell id="123" value="" style="edgeStyle=none;html=1;exitX=1;exitY=0.25;exitDx=0;exitDy=0;" edge="1" parent="1">
                    <mxGeometry relative="1" as="geometry">
                        <mxPoint x="240" y="1615" as="sourcePoint"/>
                        <Array as="points">
                            <mxPoint x="380" y="1615"/>
                        </Array>
                    </mxGeometry>
                </mxCell>
                <mxCell id="125" value="" style="edgeStyle=none;html=1;exitX=1;exitY=0.75;exitDx=0;exitDy=0;" edge="1" parent="1">
                    <mxGeometry relative="1" as="geometry">
                        <mxPoint x="240" y="1645" as="sourcePoint"/>
                        <Array as="points">
                            <mxPoint x="380" y="1645"/>
                        </Array>
                    </mxGeometry>
                </mxCell>
                <mxCell id="126" style="edgeStyle=none;html=1;entryX=1;entryY=0.5;entryDx=0;entryDy=0;" edge="1" parent="1">
                    <mxGeometry relative="1" as="geometry">
                        <mxPoint x="440" y="1550" as="targetPoint"/>
                        <Array as="points">
                            <mxPoint x="540" y="1700"/>
                            <mxPoint x="540" y="1550"/>
                        </Array>
                    </mxGeometry>
                </mxCell>
                <mxCell id="134" value="account" style="swimlane;fontStyle=0;childLayout=stackLayout;horizontal=1;startSize=26;horizontalStack=0;resizeParent=1;resizeParentMax=0;resizeLast=0;collapsible=1;marginBottom=0;" vertex="1" parent="1">
                    <mxGeometry x="220" y="1640" width="140" height="182" as="geometry"/>
                </mxCell>
                <mxCell id="135" value="username" style="text;strokeColor=none;fillColor=none;align=left;verticalAlign=top;spacingLeft=4;spacingRight=4;overflow=hidden;rotatable=0;points=[[0,0.5],[1,0.5]];portConstraint=eastwest;" vertex="1" parent="134">
                    <mxGeometry y="26" width="140" height="26" as="geometry"/>
                </mxCell>
                <mxCell id="136" value="password" style="text;strokeColor=none;fillColor=none;align=left;verticalAlign=top;spacingLeft=4;spacingRight=4;overflow=hidden;rotatable=0;points=[[0,0.5],[1,0.5]];portConstraint=eastwest;" vertex="1" parent="134">
                    <mxGeometry y="52" width="140" height="26" as="geometry"/>
                </mxCell>
                <mxCell id="137" value="email" style="text;strokeColor=none;fillColor=none;align=left;verticalAlign=top;spacingLeft=4;spacingRight=4;overflow=hidden;rotatable=0;points=[[0,0.5],[1,0.5]];portConstraint=eastwest;" vertex="1" parent="134">
                    <mxGeometry y="78" width="140" height="26" as="geometry"/>
                </mxCell>
                <mxCell id="138" value="phone" style="text;strokeColor=none;fillColor=none;align=left;verticalAlign=top;spacingLeft=4;spacingRight=4;overflow=hidden;rotatable=0;points=[[0,0.5],[1,0.5]];portConstraint=eastwest;" vertex="1" parent="134">
                    <mxGeometry y="104" width="140" height="26" as="geometry"/>
                </mxCell>
                <mxCell id="139" value="suffix" style="text;strokeColor=none;fillColor=none;align=left;verticalAlign=top;spacingLeft=4;spacingRight=4;overflow=hidden;rotatable=0;points=[[0,0.5],[1,0.5]];portConstraint=eastwest;" vertex="1" parent="134">
                    <mxGeometry y="130" width="140" height="26" as="geometry"/>
                </mxCell>
                <mxCell id="140" value="accountType" style="text;strokeColor=none;fillColor=none;align=left;verticalAlign=top;spacingLeft=4;spacingRight=4;overflow=hidden;rotatable=0;points=[[0,0.5],[1,0.5]];portConstraint=eastwest;" vertex="1" parent="134">
                    <mxGeometry y="156" width="140" height="26" as="geometry"/>
                </mxCell>
                <mxCell id="141" value="student" style="swimlane;fontStyle=0;childLayout=stackLayout;horizontal=1;startSize=26;horizontalStack=0;resizeParent=1;resizeParentMax=0;resizeLast=0;collapsible=1;marginBottom=0;" vertex="1" parent="1">
                    <mxGeometry x="514" y="1640" width="140" height="218" as="geometry"/>
                </mxCell>
                <mxCell id="142" value="name" style="text;strokeColor=none;fillColor=none;align=left;verticalAlign=top;spacingLeft=4;spacingRight=4;overflow=hidden;rotatable=0;points=[[0,0.5],[1,0.5]];portConstraint=eastwest;" vertex="1" parent="141">
                    <mxGeometry y="26" width="140" height="26" as="geometry"/>
                </mxCell>
                <mxCell id="143" value="age" style="text;strokeColor=none;fillColor=none;align=left;verticalAlign=top;spacingLeft=4;spacingRight=4;overflow=hidden;rotatable=0;points=[[0,0.5],[1,0.5]];portConstraint=eastwest;" vertex="1" parent="141">
                    <mxGeometry y="52" width="140" height="26" as="geometry"/>
                </mxCell>
                <mxCell id="144" value="gender" style="text;strokeColor=none;fillColor=none;align=left;verticalAlign=top;spacingLeft=4;spacingRight=4;overflow=hidden;rotatable=0;points=[[0,0.5],[1,0.5]];portConstraint=eastwest;" vertex="1" parent="141">
                    <mxGeometry y="78" width="140" height="20" as="geometry"/>
                </mxCell>
                <mxCell id="145" value="schoolID" style="text;strokeColor=none;fillColor=none;align=left;verticalAlign=top;spacingLeft=4;spacingRight=4;overflow=hidden;rotatable=0;points=[[0,0.5],[1,0.5]];portConstraint=eastwest;" vertex="1" parent="141">
                    <mxGeometry y="98" width="140" height="20" as="geometry"/>
                </mxCell>
                <mxCell id="146" value="phone" style="text;strokeColor=none;fillColor=none;align=left;verticalAlign=top;spacingLeft=4;spacingRight=4;overflow=hidden;rotatable=0;points=[[0,0.5],[1,0.5]];portConstraint=eastwest;" vertex="1" parent="141">
                    <mxGeometry y="118" width="140" height="20" as="geometry"/>
                </mxCell>
                <mxCell id="147" value="IDCard" style="text;strokeColor=none;fillColor=none;align=left;verticalAlign=top;spacingLeft=4;spacingRight=4;overflow=hidden;rotatable=0;points=[[0,0.5],[1,0.5]];portConstraint=eastwest;" vertex="1" parent="141">
                    <mxGeometry y="138" width="140" height="20" as="geometry"/>
                </mxCell>
                <mxCell id="148" value="classID" style="text;strokeColor=none;fillColor=none;align=left;verticalAlign=top;spacingLeft=4;spacingRight=4;overflow=hidden;rotatable=0;points=[[0,0.5],[1,0.5]];portConstraint=eastwest;" vertex="1" parent="141">
                    <mxGeometry y="158" width="140" height="20" as="geometry"/>
                </mxCell>
                <mxCell id="149" value="grade" style="text;strokeColor=none;fillColor=none;align=left;verticalAlign=top;spacingLeft=4;spacingRight=4;overflow=hidden;rotatable=0;points=[[0,0.5],[1,0.5]];portConstraint=eastwest;" vertex="1" parent="141">
                    <mxGeometry y="178" width="140" height="20" as="geometry"/>
                </mxCell>
                <mxCell id="150" value="academy" style="text;strokeColor=none;fillColor=none;align=left;verticalAlign=top;spacingLeft=4;spacingRight=4;overflow=hidden;rotatable=0;points=[[0,0.5],[1,0.5]];portConstraint=eastwest;" vertex="1" parent="141">
                    <mxGeometry y="198" width="140" height="20" as="geometry"/>
                </mxCell>
                <mxCell id="151" value="teacher" style="swimlane;fontStyle=0;childLayout=stackLayout;horizontal=1;startSize=26;horizontalStack=0;resizeParent=1;resizeParentMax=0;resizeLast=0;collapsible=1;marginBottom=0;" vertex="1" parent="1">
                    <mxGeometry x="380" y="1880" width="140" height="178" as="geometry"/>
                </mxCell>
                <mxCell id="152" value="face" style="text;strokeColor=none;fillColor=none;align=left;verticalAlign=top;spacingLeft=4;spacingRight=4;overflow=hidden;rotatable=0;points=[[0,0.5],[1,0.5]];portConstraint=eastwest;" vertex="1" parent="151">
                    <mxGeometry y="26" width="140" height="26" as="geometry"/>
                </mxCell>
                <mxCell id="153" value="name" style="text;strokeColor=none;fillColor=none;align=left;verticalAlign=top;spacingLeft=4;spacingRight=4;overflow=hidden;rotatable=0;points=[[0,0.5],[1,0.5]];portConstraint=eastwest;" vertex="1" parent="151">
                    <mxGeometry y="52" width="140" height="26" as="geometry"/>
                </mxCell>
                <mxCell id="154" value="age" style="text;strokeColor=none;fillColor=none;align=left;verticalAlign=top;spacingLeft=4;spacingRight=4;overflow=hidden;rotatable=0;points=[[0,0.5],[1,0.5]];portConstraint=eastwest;" vertex="1" parent="151">
                    <mxGeometry y="78" width="140" height="20" as="geometry"/>
                </mxCell>
                <mxCell id="155" value="gender" style="text;strokeColor=none;fillColor=none;align=left;verticalAlign=top;spacingLeft=4;spacingRight=4;overflow=hidden;rotatable=0;points=[[0,0.5],[1,0.5]];portConstraint=eastwest;" vertex="1" parent="151">
                    <mxGeometry y="98" width="140" height="20" as="geometry"/>
                </mxCell>
                <mxCell id="156" value="phone" style="text;strokeColor=none;fillColor=none;align=left;verticalAlign=top;spacingLeft=4;spacingRight=4;overflow=hidden;rotatable=0;points=[[0,0.5],[1,0.5]];portConstraint=eastwest;" vertex="1" parent="151">
                    <mxGeometry y="118" width="140" height="20" as="geometry"/>
                </mxCell>
                <mxCell id="157" value="academy" style="text;strokeColor=none;fillColor=none;align=left;verticalAlign=top;spacingLeft=4;spacingRight=4;overflow=hidden;rotatable=0;points=[[0,0.5],[1,0.5]];portConstraint=eastwest;" vertex="1" parent="151">
                    <mxGeometry y="138" width="140" height="20" as="geometry"/>
                </mxCell>
                <mxCell id="158" value="department" style="text;strokeColor=none;fillColor=none;align=left;verticalAlign=top;spacingLeft=4;spacingRight=4;overflow=hidden;rotatable=0;points=[[0,0.5],[1,0.5]];portConstraint=eastwest;" vertex="1" parent="151">
                    <mxGeometry y="158" width="140" height="20" as="geometry"/>
                </mxCell>
                <mxCell id="159" style="edgeStyle=none;html=1;entryX=0;entryY=0.5;entryDx=0;entryDy=0;" edge="1" parent="1" source="136" target="143">
                    <mxGeometry relative="1" as="geometry"/>
                </mxCell>
                <mxCell id="160" style="edgeStyle=none;html=1;exitX=1;exitY=0.5;exitDx=0;exitDy=0;entryX=0.5;entryY=0;entryDx=0;entryDy=0;" edge="1" parent="1" source="138" target="151">
                    <mxGeometry relative="1" as="geometry">
                        <mxPoint x="480" y="1757" as="targetPoint"/>
                        <Array as="points">
                            <mxPoint x="450" y="1757"/>
                        </Array>
                    </mxGeometry>
                </mxCell>
                <mxCell id="161" style="edgeStyle=none;html=1;exitX=1;exitY=0.5;exitDx=0;exitDy=0;" edge="1" parent="1" source="154" target="150">
                    <mxGeometry relative="1" as="geometry">
                        <mxPoint x="620" y="1960" as="targetPoint"/>
                        <Array as="points">
                            <mxPoint x="584" y="1968"/>
                        </Array>
                    </mxGeometry>
                </mxCell>
                <mxCell id="162" style="edgeStyle=none;html=1;exitX=0.79;exitY=1.1;exitDx=0;exitDy=0;exitPerimeter=0;entryX=1;entryY=0.5;entryDx=0;entryDy=0;" edge="1" parent="1" source="150" target="156">
                    <mxGeometry relative="1" as="geometry">
                        <mxPoint x="610" y="2030" as="targetPoint"/>
                        <Array as="points">
                            <mxPoint x="625" y="2008"/>
                        </Array>
                    </mxGeometry>
                </mxCell>
                <mxCell id="179" style="edgeStyle=none;html=1;" edge="1" parent="1" source="177" target="113">
                    <mxGeometry relative="1" as="geometry"/>
                </mxCell>
                <mxCell id="180" style="edgeStyle=none;html=1;entryX=0.5;entryY=0;entryDx=0;entryDy=0;" edge="1" parent="1" source="177" target="115">
                    <mxGeometry relative="1" as="geometry"/>
                </mxCell>
                <mxCell id="181" style="edgeStyle=none;html=1;exitX=0.75;exitY=1;exitDx=0;exitDy=0;entryX=0.5;entryY=0;entryDx=0;entryDy=0;" edge="1" parent="1" source="177" target="111">
                    <mxGeometry relative="1" as="geometry"/>
                </mxCell>
                <mxCell id="182" style="edgeStyle=none;html=1;exitX=1;exitY=1;exitDx=0;exitDy=0;entryX=0.5;entryY=0;entryDx=0;entryDy=0;" edge="1" parent="1" source="177" target="109">
                    <mxGeometry relative="1" as="geometry"/>
                </mxCell>
                <mxCell id="177" value="学生管理" style="rounded=0;whiteSpace=wrap;html=1;" vertex="1" parent="1">
                    <mxGeometry x="250" y="1330" width="120" height="60" as="geometry"/>
                </mxCell>
                <mxCell id="186" value="" style="edgeStyle=none;html=1;" edge="1" parent="1" source="183" target="185">
                    <mxGeometry relative="1" as="geometry"/>
                </mxCell>
                <mxCell id="188" value="" style="edgeStyle=none;html=1;entryX=1;entryY=0.5;entryDx=0;entryDy=0;" edge="1" parent="1" source="183" target="187">
                    <mxGeometry relative="1" as="geometry"/>
                </mxCell>
                <mxCell id="190" value="" style="edgeStyle=none;html=1;entryX=1;entryY=0.5;entryDx=0;entryDy=0;" edge="1" parent="1" source="183" target="189">
                    <mxGeometry relative="1" as="geometry"/>
                </mxCell>
                <mxCell id="192" value="" style="edgeStyle=none;html=1;entryX=1;entryY=0.75;entryDx=0;entryDy=0;" edge="1" parent="1" source="183" target="191">
                    <mxGeometry relative="1" as="geometry"/>
                </mxCell>
                <mxCell id="183" value="教师管理" style="whiteSpace=wrap;html=1;" vertex="1" parent="1">
                    <mxGeometry x="230" y="1100" width="120" height="60" as="geometry"/>
                </mxCell>
                <mxCell id="185" value="查询教师信息" style="whiteSpace=wrap;html=1;" vertex="1" parent="1">
                    <mxGeometry x="30" y="1100" width="120" height="60" as="geometry"/>
                </mxCell>
                <mxCell id="187" value="修改教师信息" style="whiteSpace=wrap;html=1;" vertex="1" parent="1">
                    <mxGeometry x="30" y="1180" width="120" height="60" as="geometry"/>
                </mxCell>
                <mxCell id="189" value="删除教师" style="whiteSpace=wrap;html=1;" vertex="1" parent="1">
                    <mxGeometry x="30" y="1020" width="120" height="60" as="geometry"/>
                </mxCell>
                <mxCell id="191" value="添加教师" style="whiteSpace=wrap;html=1;" vertex="1" parent="1">
                    <mxGeometry x="30" y="930" width="120" height="60" as="geometry"/>
                </mxCell>
            </root>
        </mxGraphModel>
    </diagram>
</mxfile>
